<svg width="72" height="146" viewBox="0 0 72 146" fill="none" xmlns="http://www.w3.org/2000/svg">
<g opacity="0.53">
<path d="M50.2002 69.081C57.8536 65.7958 64.1312 59.9584 67.9633 52.5635C71.7953 45.1686 72.9447 36.6738 71.2157 28.5265C69.4867 20.3792 64.9862 13.0834 58.481 7.88229C51.9758 2.6812 43.8685 -0.103408 35.5403 0.00293455C27.2122 0.109277 19.1786 3.09999 12.8084 8.46549C6.43814 13.831 2.12537 21.2393 0.604936 29.4281C-0.9155 37.617 0.450468 46.0797 4.4701 53.3743C8.48972 60.6689 14.9143 66.3441 22.6492 69.4328L23.6414 66.948C16.4814 64.0888 10.5344 58.8354 6.81348 52.083C3.0926 45.3305 1.82815 37.4968 3.23558 29.9166C4.64302 22.3364 8.63525 15.4786 14.532 10.5119C20.4288 5.5452 27.8654 2.77677 35.5745 2.67833C43.2837 2.57989 50.7884 5.15753 56.8101 9.97207C62.8318 14.7866 66.9979 21.5401 68.5984 29.0819C70.1989 36.6238 69.1349 44.4872 65.5877 51.3325C62.0404 58.1777 56.2294 63.5813 49.1448 66.6224L50.2002 69.081Z" fill="#916BBF"/>
<path d="M38.2088 59.4545H35.7017L32.0866 61.777V64.1918L35.4886 62.0185H35.5739V74H38.2088V59.4545Z" fill="#916BBF"/>
<g clip-path="url(#clip0_313_3)">
<path d="M54.7936 40.9936C54.7873 40.9198 54.7711 40.8472 54.7457 40.7776L54.7247 40.7208C54.5974 40.2472 54.4268 39.7864 54.2149 39.3441L50.0069 27.9788C49.6319 26.8369 48.9022 25.8444 47.924 25.1459L47.7741 24.0824C47.7671 24.0324 47.7555 23.9831 47.7395 23.9351C47.1752 22.2562 45.5984 21.1279 43.8272 21.1355C41.6079 21.1355 39.761 22.9558 39.7102 25.1933V25.2299L39.7457 26.8753C39.3626 27.5281 39.1162 28.2518 39.0212 29.0027H32.9811C32.886 28.2527 32.6399 27.5297 32.2576 26.8775L32.2928 25.2608C32.2928 25.2485 32.2928 25.2412 32.2928 25.2289C32.242 22.9914 30.395 21.1736 28.1758 21.1736C26.4044 21.1664 24.8276 22.2952 24.2635 23.9744C24.248 24.0211 24.2367 24.069 24.2296 24.1177L24.0789 25.1458C23.1009 25.8444 22.3714 26.8366 21.9964 27.9784L17.7886 39.3441C17.5767 39.7863 17.4061 40.2472 17.2788 40.7208L17.2578 40.7775C17.2323 40.8472 17.2162 40.9201 17.2099 40.9941C16.2063 45.3257 18.9041 49.6508 23.2358 50.6545C27.5674 51.6582 31.8925 48.9603 32.8962 44.6287C33.0344 44.0325 33.1041 43.4225 33.104 42.8105C33.104 42.723 33.1021 42.6356 33.0993 42.5491C33.1026 42.5171 33.1041 42.4847 33.104 42.4525L33.0862 39.6627H38.9179L38.8994 42.6191C38.8994 42.6331 38.9006 42.6493 38.9012 42.6631C38.9004 42.7114 38.8994 42.7607 38.8994 42.8091C38.9008 47.2553 42.5062 50.8584 46.9524 50.857C51.3986 50.8556 55.0017 47.2501 55.0003 42.804C55.0001 42.1946 54.9307 41.5873 54.7936 40.9936ZM28.1757 22.8417C29.4477 22.8417 30.5143 23.8518 30.6195 25.1223C29.2561 24.167 27.5417 23.859 25.9309 24.28C26.33 23.3998 27.2092 22.8364 28.1757 22.8417ZM23.5637 28.5426C23.5675 28.5325 23.571 28.5222 23.5744 28.512C24.2623 26.4148 26.52 25.2724 28.6172 25.9603C29.4676 26.2393 30.1998 26.7957 30.6964 27.5403C30.712 27.5678 30.7294 27.5945 30.7481 27.6201C31.1465 28.2476 31.3578 28.9756 31.3572 29.7188L31.4091 37.8753C28.8868 34.6198 24.3122 33.7971 20.8138 35.9698L23.5637 28.5426ZM30.7881 45.6185C29.7162 47.8079 27.4912 49.1958 25.0536 49.1955V49.1952C21.5262 49.1941 18.6677 46.3337 18.6687 42.8064C18.6689 42.2731 18.7359 41.742 18.868 41.2254L19.3202 40.004C20.8706 36.8373 24.6946 35.527 27.8614 37.0774C31.0282 38.6278 32.3385 42.4519 30.7881 45.6185ZM38.9276 37.9969H33.0756L33.0673 36.7477H38.9359L38.9276 37.9969ZM38.9467 35.0822H33.057L33.0293 30.6684H38.9741L38.9467 35.0822ZM43.8276 22.8011C44.8117 22.7957 45.7034 23.3802 46.091 24.2849C44.4742 23.8564 42.7508 24.1635 41.3815 25.1239C41.4659 23.8336 42.5414 22.8011 43.8276 22.8011ZM40.646 29.7128C40.646 27.5337 42.437 25.7608 44.6385 25.7608C45.3476 25.7602 46.044 25.9489 46.6557 26.3075C46.6964 26.3378 46.7398 26.3644 46.7854 26.3869C47.5628 26.8834 48.1436 27.6343 48.4289 28.5115C48.4322 28.5221 48.4358 28.5324 48.4395 28.5425L51.1895 35.9698C47.6914 33.7972 43.1173 34.6193 40.5948 37.8741L40.646 29.7128ZM48.5306 48.9958C48.0141 49.128 47.4829 49.1949 46.9497 49.1951L46.9498 49.1953C43.4236 49.1964 40.5641 46.3386 40.563 42.8123C40.5619 39.286 43.4197 36.4265 46.946 36.4255C49.3848 36.4247 51.611 37.8134 52.683 40.004L53.1352 41.2253C54.0095 44.6426 51.948 48.1216 48.5306 48.9958Z" fill="#916BBF"/>
<path d="M25.0532 37.106C21.9027 37.106 19.3486 39.66 19.3486 42.8106C19.3486 45.9611 21.9027 48.5152 25.0532 48.5152C28.2038 48.5152 30.7578 45.9611 30.7578 42.8106C30.7544 39.6614 28.2024 37.1095 25.0532 37.106ZM25.0532 46.8497C22.8225 46.8497 21.0142 45.0413 21.0142 42.8106C21.0142 40.5799 22.8225 38.7716 25.0532 38.7716C27.2839 38.7716 29.0923 40.5799 29.0923 42.8106C29.0899 45.0403 27.2829 46.8472 25.0532 46.8497Z" fill="#916BBF"/>
<path d="M46.8479 37.106C43.6973 37.106 41.1433 39.66 41.1433 42.8106C41.1433 45.9611 43.6973 48.5152 46.8479 48.5152C49.9984 48.5152 52.5525 45.9611 52.5525 42.8106C52.549 39.6614 49.997 37.1095 46.8479 37.106ZM46.8479 46.8497C44.6172 46.8497 42.8089 45.0413 42.8089 42.8106C42.8089 40.5799 44.6172 38.7716 46.8479 38.7716C49.0786 38.7716 50.8869 40.5799 50.8869 42.8106C50.8845 45.0403 49.0775 46.8472 46.8479 46.8497Z" fill="#916BBF"/>
</g>
</g>
<line x1="36.5" y1="81" x2="36.5" y2="145.031" stroke="#0A275B" stroke-opacity="0.53" stroke-dasharray="5 5"/>
<defs>
<clipPath id="clip0_313_3">
<rect width="38" height="38" fill="white" transform="translate(17 17)"/>
</clipPath>
</defs>
</svg>
