<svg width="223" height="178" viewBox="0 0 223 178" fill="none" xmlns="http://www.w3.org/2000/svg">
<mask id="mask0_398_32" style="mask-type:alpha" maskUnits="userSpaceOnUse" x="-51" y="0" width="274" height="274">
<circle cx="86" cy="137" r="137" fill="white" fill-opacity="0.5"/>
</mask>
<g mask="url(#mask0_398_32)">
<circle cx="20.8744" cy="6.00476" r="6.00476" fill="#2A2438"/>
<circle cx="20.8744" cy="43.2343" r="6.00476" fill="#2A2438"/>
<circle cx="20.8744" cy="80.4637" r="6.00476" fill="#2A2438"/>
<circle cx="20.8744" cy="117.693" r="6.00476" fill="#2A2438"/>
<circle cx="20.8744" cy="154.923" r="6.00476" fill="#2A2438"/>
<circle cx="54.5009" cy="6.00476" r="6.00476" fill="#2A2438"/>
<circle cx="54.5009" cy="43.2343" r="6.00476" fill="#2A2438"/>
<circle cx="54.5009" cy="80.4637" r="6.00476" fill="#2A2438"/>
<circle cx="54.5009" cy="117.693" r="6.00476" fill="#2A2438"/>
<circle cx="54.5009" cy="154.923" r="6.00476" fill="#2A2438"/>
<circle cx="88.1277" cy="6.00476" r="6.00476" fill="#2A2438"/>
<circle cx="88.1277" cy="43.2343" r="6.00476" fill="#2A2438"/>
<circle cx="88.1277" cy="80.4637" r="6.00476" fill="#2A2438"/>
<circle cx="88.1277" cy="117.693" r="6.00476" fill="#2A2438"/>
<circle cx="88.1277" cy="154.923" r="6.00476" fill="#2A2438"/>
<circle cx="121.754" cy="6.00476" r="6.00476" fill="#2A2438"/>
<circle cx="121.754" cy="43.2343" r="6.00476" fill="#2A2438"/>
<circle cx="121.754" cy="80.4637" r="6.00476" fill="#2A2438"/>
<circle cx="121.754" cy="117.693" r="6.00476" fill="#2A2438"/>
<circle cx="121.754" cy="154.923" r="6.00476" fill="#2A2438"/>
<circle cx="155.381" cy="6.00476" r="6.00476" fill="#2A2438"/>
<circle cx="155.381" cy="43.2343" r="6.00476" fill="#2A2438"/>
<circle cx="155.381" cy="80.4637" r="6.00476" fill="#2A2438"/>
<circle cx="155.381" cy="117.693" r="6.00476" fill="#2A2438"/>
<circle cx="155.381" cy="154.923" r="6.00476" fill="#2A2438"/>
<circle cx="189.008" cy="6.00476" r="6.00476" fill="#2A2438"/>
<circle cx="189.008" cy="43.2343" r="6.00476" fill="#2A2438"/>
<circle cx="189.008" cy="80.4637" r="6.00476" fill="#2A2438"/>
<circle cx="189.008" cy="117.693" r="6.00476" fill="#2A2438"/>
<circle cx="189.008" cy="154.923" r="6.00476" fill="#2A2438"/>
<circle cx="222.634" cy="6.00476" r="6.00476" fill="#2A2438"/>
<circle cx="222.634" cy="43.2343" r="6.00476" fill="#2A2438"/>
<circle cx="222.634" cy="80.4637" r="6.00476" fill="#2A2438"/>
<circle cx="222.634" cy="117.693" r="6.00476" fill="#2A2438"/>
<circle cx="222.634" cy="154.923" r="6.00476" fill="#2A2438"/>
</g>
</svg>
