<svg width="136" height="24" viewBox="0 0 136 24" fill="none" xmlns="http://www.w3.org/2000/svg">
<g clip-path="url(#clip0_698_74)">
<path d="M12.3702 13.5092H11.0056L19.1346 21.7969V23.7212H17.252L7.22663 13.5092H2.67065V23.7212H0V0H12.3702C14.1379 0.0358944 15.8211 0.763315 17.0585 2.02614C18.296 3.28897 18.9891 4.98656 18.9891 6.75461C18.9891 8.52266 18.296 10.2203 17.0585 11.4831C15.8211 12.7459 14.1379 13.4733 12.3702 13.5092ZM2.67065 2.67066V10.8386H12.3702C13.4349 10.8108 14.4466 10.3683 15.1898 9.60542C15.933 8.84257 16.3489 7.81964 16.3489 6.75461C16.3489 5.68958 15.933 4.66665 15.1898 3.9038C14.4466 3.14094 13.4349 2.69846 12.3702 2.67066H2.67065Z" fill="#510E8C"/>
<path d="M31.8919 5.12138C34.3593 5.12433 36.7248 6.10582 38.4696 7.85057C40.2143 9.59531 41.1958 11.9608 41.1988 14.4283V23.7352H38.5281V14.4144C38.5281 12.6543 37.8289 10.9664 36.5844 9.72183C35.3399 8.47729 33.6519 7.77811 31.8919 7.77811C30.1318 7.77811 28.4439 8.47729 27.1993 9.72183C25.9548 10.9664 25.2556 12.6543 25.2556 14.4144C25.2574 14.454 25.264 14.4933 25.2751 14.5313C25.2863 14.5694 25.2928 14.6087 25.2946 14.6483H25.2556V23.7213H22.585V0.158813H25.2556V7.90622C26.1098 7.00926 27.1403 6.2988 28.2824 5.81953C29.4245 5.34026 30.6534 5.10256 31.8919 5.12138Z" fill="#F7931E" stroke="#F7931E" strokeWidth="0.278483" stroke-miterlimit="10"/>
<path d="M52.6615 21.0507C53.9534 21.056 55.2163 20.6674 56.2818 19.9367C57.3447 19.2407 58.1864 18.2551 58.7074 17.0962H61.5757C60.9967 19.0107 59.8183 20.6888 58.2141 21.8835C56.6098 23.0781 54.6645 23.7263 52.6643 23.7324C50.8255 23.7319 49.0281 23.1863 47.4992 22.1647C45.9704 21.143 44.7786 19.6912 44.0745 17.9925C43.3705 16.2938 43.1857 14.4246 43.5436 12.6209C43.9014 10.8173 44.7859 9.16019 46.0851 7.85899C47.3844 6.55779 49.0401 5.67087 50.8433 5.31032C52.6464 4.94977 54.5159 5.13176 56.2156 5.83328C57.9153 6.53479 59.369 7.72436 60.3929 9.2517C61.4168 10.779 61.9651 12.5756 61.9684 14.4144H46.0252C46.0252 16.1744 46.7244 17.8624 47.9689 19.1069C49.2135 20.3515 50.9014 21.0507 52.6615 21.0507ZM56.2818 8.85586C55.2007 8.15249 53.9387 7.77808 52.6489 7.77808C51.3592 7.77808 50.0972 8.15249 49.0161 8.85586C47.952 9.5512 47.1131 10.541 46.6017 11.7048H58.6962C58.1878 10.5425 57.3529 9.55283 56.2929 8.85586H56.2818Z" fill="#510E8C"/>
<path d="M73.4749 5.12123C75.9423 5.12418 78.3078 6.10567 80.0526 7.85041C81.7973 9.59516 82.7788 11.9607 82.7818 14.4281V23.735H80.1111V14.4142C80.0755 12.6773 79.3606 11.0236 78.1197 9.80784C76.8787 8.59207 75.2107 7.91114 73.4735 7.91114C71.7362 7.91114 70.0682 8.59207 68.8273 9.80784C67.5864 11.0236 66.8714 12.6773 66.8358 14.4142V23.7211H64.168V5.06274H66.8358V7.90606C67.6904 7.0089 68.7214 6.29832 69.864 5.81905C71.0066 5.33978 72.236 5.10219 73.4749 5.12123Z" fill="#510E8C"/>
<path d="M100.925 0.158813H103.593V23.7213H100.925V20.9364C99.6305 22.2554 97.9725 23.1591 96.1625 23.5323C94.3524 23.9055 92.4723 23.7314 90.7615 23.0321C89.0508 22.3329 87.587 21.1401 86.5567 19.6058C85.5263 18.0716 84.9761 16.2653 84.9761 14.4172C84.9761 12.569 85.5263 10.7627 86.5567 9.22848C87.587 7.69422 89.0508 6.50145 90.7615 5.80218C92.4723 5.1029 94.3524 4.92877 96.1625 5.302C97.9725 5.67522 99.6305 6.57889 100.925 7.89785V0.158813ZM89.5936 19.0957C90.6805 20.1799 92.1097 20.8538 93.6377 21.0025C95.1657 21.1512 96.698 20.7655 97.9736 19.9112C99.2491 19.0568 100.189 17.7866 100.633 16.317C101.077 14.8474 100.998 13.2693 100.409 11.8515C99.8199 10.4338 98.7576 9.26405 97.4029 8.54169C96.0483 7.81933 94.485 7.58902 92.9796 7.88997C91.4741 8.19091 90.1196 9.0045 89.1467 10.1921C88.1739 11.3798 87.6429 12.868 87.6442 14.4032C87.6303 15.2789 87.7962 16.148 88.1315 16.957C88.4668 17.766 88.9644 18.4977 89.5936 19.1068V19.0957Z" fill="#510E8C"/>
<path d="M121.736 5.06836H124.407V23.7267H121.736V20.9419C120.442 22.2609 118.784 23.1645 116.974 23.5378C115.163 23.911 113.283 23.7369 111.573 23.0376C109.862 22.3383 108.398 21.1455 107.368 19.6113C106.337 18.077 105.787 16.2707 105.787 14.4226C105.787 12.5745 106.337 10.7682 107.368 9.23393C108.398 7.69967 109.862 6.5069 111.573 5.80762C113.283 5.10835 115.163 4.93423 116.974 5.30746C118.784 5.68069 120.442 6.58436 121.736 7.90332V5.06836ZM110.407 19.1067C111.494 20.1909 112.923 20.8648 114.451 21.0135C115.98 21.1622 117.512 20.7766 118.787 19.9222C120.063 19.0678 121.003 17.7976 121.447 16.328C121.891 14.8584 121.812 13.2803 121.223 11.8625C120.634 10.4448 119.571 9.27509 118.217 8.55273C116.862 7.83037 115.299 7.60004 113.793 7.90099C112.288 8.20193 110.933 9.01552 109.961 10.2032C108.988 11.3908 108.457 12.879 108.458 14.4143C108.446 15.288 108.612 16.1551 108.947 16.9621C109.283 17.769 109.78 18.4989 110.407 19.1067Z" fill="#510E8C"/>
<path d="M131.274 15.0297L132.642 17.8006L135.702 18.2461L133.488 20.4044L134.012 23.451L131.274 22.014L128.537 23.451L129.06 20.4044L126.846 18.2461L129.907 17.8006L131.274 15.0297Z" fill="#F7931E" stroke="#F7931E" strokeWidth="0.278483" stroke-miterlimit="10"/>
</g>
<defs>
<clipPath id="clip0_698_74">
<rect width="136" height="23.8576" fill="white"/>
</clipPath>
</defs>
</svg>
