<svg width="72" height="146" viewBox="0 0 72 146" fill="none" xmlns="http://www.w3.org/2000/svg">
<g opacity="0.53">
<path d="M50.2002 69.1435C57.8536 65.8583 64.1312 60.0209 67.9633 52.626C71.7953 45.2311 72.9447 36.7363 71.2157 28.589C69.4867 20.4417 64.9862 13.1459 58.481 7.94479C51.9758 2.7437 43.8685 -0.0409081 35.5403 0.0654346C27.2122 0.171777 19.1786 3.16249 12.8084 8.52799C6.43814 13.8935 2.12537 21.3018 0.604936 29.4906C-0.9155 37.6795 0.450468 46.1422 4.4701 53.4368C8.48972 60.7314 14.9143 66.4066 22.6492 69.4953L23.6414 67.0105C16.4814 64.1513 10.5344 58.8979 6.81348 52.1455C3.0926 45.393 1.82815 37.5593 3.23558 29.9791C4.64302 22.3989 8.63525 15.5411 14.532 10.5744C20.4288 5.6077 27.8654 2.83927 35.5745 2.74083C43.2837 2.64239 50.7884 5.22003 56.8101 10.0346C62.8318 14.8491 66.9979 21.6026 68.5984 29.1444C70.1989 36.6863 69.1349 44.5497 65.5877 51.395C62.0404 58.2402 56.2294 63.6438 49.1448 66.6849L50.2002 69.1435Z" fill="#916BBF"/>
<path d="M37.5128 74.2614C40.6236 74.2614 42.8892 72.4787 42.8821 70.0213C42.8892 68.2031 41.7528 66.8963 39.7145 66.6051V66.4915C41.2912 66.1506 42.3494 64.9787 42.3423 63.3452C42.3494 61.1293 40.4602 59.3182 37.5554 59.3182C34.7287 59.3182 32.5412 61.0014 32.4844 63.4375H35.0199C35.0625 62.2159 36.1989 61.456 37.5412 61.456C38.8977 61.456 39.7997 62.2798 39.7926 63.5014C39.7997 64.7727 38.7486 65.6179 37.2429 65.6179H35.9574V67.6491H37.2429C39.0824 67.6491 40.1761 68.5724 40.169 69.8864C40.1761 71.1719 39.0611 72.0526 37.5057 72.0526C36.0426 72.0526 34.9134 71.2926 34.8494 70.1065H32.179C32.25 72.5639 34.4446 74.2614 37.5128 74.2614Z" fill="#916BBF"/>
<g clip-path="url(#clip0_313_3)">
<path d="M54.9602 41.7069C54.3328 38.1734 51.988 35.3363 48.896 34.0203C50.2682 32.8696 51.1446 31.1272 51.1446 29.1807C51.1446 25.7235 48.3811 22.9107 44.9841 22.9107C41.5872 22.9107 38.8237 25.7232 38.8237 29.1807C38.8237 31.1284 39.701 32.8714 41.0746 34.0224C40.562 34.241 40.0654 34.5019 39.5911 34.806C38.3958 35.5725 37.3753 36.582 36.5887 37.7643C35.7883 37.2326 34.9275 36.7902 34.0201 36.4507C35.9703 35.0408 37.2454 32.7227 37.2454 30.1067C37.2454 25.8197 33.8212 22.332 29.6122 22.332C25.4031 22.332 21.9789 25.8197 21.9789 30.1067C21.9789 32.7227 23.254 35.0408 25.2043 36.4507C21.0538 38.0035 17.8705 41.6962 17.0448 46.3453C16.8923 47.2049 17.1266 48.0816 17.687 48.7507C18.2422 49.4132 19.0522 49.793 19.9095 49.793H39.3148C40.1721 49.793 40.9821 49.4132 41.5373 48.7507C42.098 48.0816 42.332 47.2049 42.1795 46.3453C42.0777 45.7718 41.9397 45.2132 41.769 44.6713H52.4947C53.2329 44.6713 53.9304 44.3443 54.4082 43.7743C54.89 43.1994 55.0912 42.4456 54.9602 41.7069ZM41.0503 29.1807C41.0503 26.951 42.815 25.1373 44.9841 25.1373C47.1533 25.1373 48.918 26.951 48.918 29.1807C48.918 31.4102 47.1533 33.2239 44.9841 33.2239C42.815 33.2239 41.0503 31.4102 41.0503 29.1807ZM24.2055 30.1067C24.2055 27.0475 26.6309 24.5586 29.6122 24.5586C32.5934 24.5586 35.0191 27.0475 35.0191 30.1067C35.0191 33.1659 32.5934 35.6549 29.6122 35.6549C26.6309 35.6549 24.2055 33.1659 24.2055 30.1067ZM39.8309 47.3206C39.7538 47.4125 39.5844 47.5664 39.3148 47.5664H19.9095C19.6399 47.5664 19.4706 47.4125 19.3935 47.3206C19.3134 47.2249 19.1865 47.0214 19.2372 46.7344C20.1481 41.6048 24.5114 37.8814 29.6122 37.8814C34.713 37.8814 39.0765 41.6048 39.9871 46.7344C40.0382 47.0214 39.9112 47.2249 39.8309 47.3206ZM52.7017 42.3441C52.6701 42.3818 52.6014 42.4447 52.495 42.4447H40.8331C40.1744 41.2106 39.3284 40.1034 38.3361 39.1588C39.7862 36.8519 42.2647 35.4505 44.9841 35.4505C48.8108 35.4505 52.0839 38.2453 52.7678 42.0963C52.7893 42.2177 52.7357 42.3038 52.7017 42.3441Z" fill="#916BBF"/>
</g>
</g>
<line x1="36.5" y1="81.0625" x2="36.5" y2="145.094" stroke="#0A275B" stroke-opacity="0.53" stroke-dasharray="5 5"/>
<defs>
<clipPath id="clip0_313_3">
<rect width="38" height="38" fill="white" transform="translate(17 17.0625)"/>
</clipPath>
</defs>
</svg>
