<svg width="820" height="600" viewBox="0 0 820 600" fill="none" xmlns="http://www.w3.org/2000/svg">
<g opacity="0.3">
<path d="M819.976 432.112C819.976 448.469 806.831 461.728 790.615 461.728C774.4 461.728 761.255 448.469 761.255 432.112" stroke="#44AB96" strokeWidth="6.6381" strokeLinecap="round" strokeLinejoin="round"/>
<path d="M819.976 1.1468C799.669 1.1468 783.211 -15.4277 783.211 -35.8734C783.211 -56.3191 799.669 -72.8936 819.976 -72.8936" stroke="#E53855" strokeWidth="6.6381" strokeLinecap="round" strokeLinejoin="round"/>
<path d="M73.0543 643C34.9167 643 4 612.254 4 574.321C4 536.388 34.9167 505.642 73.0543 505.642H136.251" stroke="#FFB017" strokeWidth="6.6381" strokeLinecap="round" strokeLinejoin="round"/>
<path d="M68.8394 596.023C56.1542 596.023 45.8713 586.079 45.8713 573.811C45.8713 561.542 56.1542 551.599 68.8394 551.599H93.3593" stroke="#44AB96" strokeWidth="6.6381" strokeLinecap="round" strokeLinejoin="round"/>
<path d="M819.976 157.908V71.9603C819.976 55.1295 806.256 41.4858 789.338 41.4858C772.42 41.4858 758.701 55.1295 758.701 71.9603V85.2636" stroke="#DA774A" strokeWidth="6.6381" strokeLinecap="round" strokeLinejoin="round"/>
<path d="M202 222.247V255.072C202 295.056 234.376 327.469 274.314 327.469H303.116C327.147 327.469 346.628 346.972 346.628 371.03M346.628 415.025H255.004C231.909 415.025 213.187 433.648 213.187 456.621C213.187 479.593 231.909 498.216 255.004 498.216H292.82L346.628 415.025ZM190.296 643H184.834C168.719 643 155.655 629.919 155.655 613.79C155.655 597.656 168.719 584.575 184.834 584.575H249.979C273.79 584.575 293.092 565.251 293.092 541.411L190.296 643Z" stroke="#DA774A" strokeWidth="6.6381" strokeLinecap="round" strokeLinejoin="round"/>
<path d="M303.225 143.1C314.506 143.1 323.65 133.955 323.65 122.675C323.65 111.395 314.506 102.25 303.225 102.25C291.945 102.25 282.8 111.395 282.8 122.675C282.8 133.955 291.945 143.1 303.225 143.1Z" stroke="#44AB96" strokeWidth="6.6381" strokeLinecap="round" strokeLinejoin="round"/>
<path d="M359.394 561.811C375.751 561.811 389.01 548.666 389.01 532.45C389.01 516.235 375.751 503.089 359.394 503.089C343.038 503.089 329.778 516.235 329.778 532.45C329.778 548.666 343.038 561.811 359.394 561.811Z" stroke="#E53855" strokeWidth="6.6381" strokeLinecap="round" strokeLinejoin="round"/>
<path d="M96.9339 85.3996C114.7 85.3996 129.103 70.9969 129.103 53.2303C129.103 35.4637 114.7 21.061 96.9339 21.061C79.1673 21.061 64.7646 35.4637 64.7646 53.2303C64.7646 70.9969 79.1673 85.3996 96.9339 85.3996Z" stroke="#44AB96" strokeWidth="6.6381" strokeLinecap="round" strokeLinejoin="round"/>
<path d="M97.1887 123.186C136.811 123.186 168.931 91.5229 168.931 52.4645C168.931 13.4061 136.811 -18.2568 97.1887 -18.2568C57.5667 -18.2568 25.4462 13.4061 25.4462 52.4645" stroke="#FFB017" strokeWidth="6.6381" strokeLinecap="round" strokeLinejoin="round"/>
<path d="M672.513 547.237C661.613 587.992 685.193 629.731 725.177 640.467C765.161 651.196 806.415 626.859 817.315 586.104C828.215 545.349 804.636 503.612 764.652 492.877" stroke="#44AB96" strokeWidth="6.6381" strokeLinecap="round" strokeLinejoin="round"/>
<path d="M302.715 368.795H249.203C232.08 368.795 216.235 374.719 203.326 384.776M249.013 541.386C205.631 541.386 170.463 502.867 170.463 455.352C170.463 438.853 174.704 423.438 182.056 410.345L249.013 541.386Z" stroke="#DA774A" strokeWidth="6.6381" strokeLinecap="round" strokeLinejoin="round"/>
<path d="M170.719 133.398C154.503 133.398 141.358 146.543 141.358 162.759C141.358 178.975 154.503 192.12 170.719 192.12C186.935 192.12 200.08 178.975 200.08 162.759V133.398" stroke="#44AB96" strokeWidth="6.6381" strokeLinecap="round" strokeLinejoin="round"/>
<path d="M179.654 -38.4266C179.654 -16.853 197.029 0.636094 218.462 0.636094C239.894 0.636094 257.269 -16.853 257.269 -38.4266C257.269 -60.0003 239.894 -77.4893 218.462 -77.4893H179.654" stroke="#E53855" strokeWidth="6.6381" strokeLinecap="round" strokeLinejoin="round"/>
<path d="M39.4884 364.497C20.7348 364.497 5.53198 349.457 5.53198 330.903C5.53198 312.349 20.7348 297.308 39.4884 297.308C58.2422 297.308 73.4449 312.349 73.4449 330.903V433.645" stroke="#44AB96" strokeWidth="6.6381" strokeLinecap="round" strokeLinejoin="round"/>
<path d="M749.504 366.242C749.504 383.445 763.225 397.39 780.147 397.39C797.069 397.39 810.784 383.445 810.784 366.242C810.784 349.04 797.069 335.094 780.147 335.094H677.512" stroke="#44AB96" strokeWidth="6.6381" strokeLinecap="round" strokeLinejoin="round"/>
<path d="M496.241 -6.61956C478.192 -6.61956 463.561 7.80686 463.561 25.6031C463.561 43.3994 478.192 57.8258 496.241 57.8258C514.289 57.8258 528.921 43.3994 528.921 25.6031V-78" stroke="#4484AB" strokeWidth="6.6381" strokeLinecap="round" strokeLinejoin="round"/>
<path d="M470.158 613.384C470.158 597.027 483.312 583.768 499.539 583.768C515.766 583.768 528.921 597.027 528.921 613.384C528.921 629.74 515.766 643 499.539 643H452.838" stroke="#44AB96" strokeWidth="6.6381" strokeLinecap="round" strokeLinejoin="round"/>
<path d="M559.303 209.265C575.519 209.265 588.664 222.344 588.664 238.479C588.664 254.613 575.519 267.692 559.303 267.692C543.087 267.692 529.942 254.613 529.942 238.479V129.313" stroke="#DA774A" strokeWidth="6.6381" strokeLinecap="round" strokeLinejoin="round"/>
<path d="M34.8928 212.396C18.6773 212.396 5.53198 225.345 5.53198 241.32C5.53198 257.295 18.6773 270.245 34.8928 270.245C51.1084 270.245 64.2536 257.295 64.2536 241.32V123.186" stroke="#DA774A" strokeWidth="6.6381" strokeLinecap="round" strokeLinejoin="round"/>
<path d="M354.647 123.185C354.647 94.1387 331.477 70.5913 302.895 70.5913C274.313 70.5913 251.142 94.1387 251.142 123.185C251.142 152.232 274.313 175.78 302.895 175.78H438.541" stroke="#FFB017" strokeWidth="6.6381" strokeLinecap="round" strokeLinejoin="round"/>
<path d="M768.221 293.224C796.808 293.224 819.976 269.676 819.976 240.629C819.976 211.583 796.808 188.035 768.221 188.035H632.577" stroke="#44AB96" strokeWidth="6.6381" strokeLinecap="round" strokeLinejoin="round"/>
<path fillRule="evenodd" clipRule="evenodd" d="M568.239 11.614C568.239 -15.6 590.062 -37.6611 616.984 -37.6611H667.064C693.987 -37.6611 715.809 -15.6 715.809 11.614C715.809 38.8281 693.987 60.8891 667.064 60.8891H616.984C590.062 60.8891 568.239 38.8281 568.239 11.614Z" stroke="#DA774A" strokeWidth="6.6381" strokeLinecap="round" strokeLinejoin="round"/>
<path fillRule="evenodd" clipRule="evenodd" d="M139.06 366.753C122.28 366.753 108.678 353.173 108.678 336.422V250.024C108.678 233.273 122.28 219.693 139.06 219.693C155.839 219.693 169.442 233.273 169.442 250.024V336.422C169.442 353.173 155.839 366.753 139.06 366.753Z" stroke="#FFB017" strokeWidth="6.6381" strokeLinecap="round" strokeLinejoin="round"/>
<path d="M425.775 328.201V282.585C425.775 269.565 436.405 259.011 449.519 259.011C462.632 259.011 473.263 269.565 473.263 282.585V373.817C473.263 386.836 462.632 397.39 449.519 397.39C436.405 397.39 425.775 386.836 425.775 373.817V362.795" stroke="#E53855" strokeWidth="6.6381" strokeLinecap="round" strokeLinejoin="round"/>
<path d="M469.688 84.3428V88.3197C469.688 110.96 451.285 129.313 428.583 129.313C405.881 129.313 387.478 110.96 387.478 88.3197V-36.4959C387.478 -59.1359 405.881 -77.4893 428.583 -77.4893C451.285 -77.4893 469.688 -59.1359 469.688 -36.4959V-35.2722" stroke="#FFB017" strokeWidth="6.6381" strokeLinecap="round" strokeLinejoin="round"/>
<path d="M39.6161 408.113H37.1596C19.6922 408.113 5.53198 422.287 5.53198 439.772C5.53198 457.257 19.6921 471.431 37.1596 471.431H110.241C127.708 471.431 141.868 457.257 141.868 439.772C141.868 422.287 127.708 408.113 110.241 408.113H107.784" stroke="#FFB017" strokeWidth="6.6381" strokeLinecap="round" strokeLinejoin="round"/>
<path d="M386.457 259.011V377.29C386.457 412.644 415.376 441.304 451.051 441.304C486.725 441.304 515.645 412.644 515.645 377.29V349.345" stroke="#44AB96" strokeWidth="6.6381" strokeLinecap="round" strokeLinejoin="round"/>
<path d="M256.758 459.175H362.867C403.25 459.175 435.987 492.096 435.987 532.705C435.987 573.312 403.25 606.235 362.867 606.235H330.946" stroke="#44AB96" strokeWidth="6.6381" strokeLinecap="round" strokeLinejoin="round"/>
<path d="M302.204 279.947H277.088C260.22 279.947 246.546 266.23 246.546 249.31C246.546 232.389 260.22 218.672 277.088 218.672H327.32C344.188 218.672 357.862 232.389 357.862 249.31V252.032C357.862 267.449 345.403 279.947 330.033 279.947" stroke="#4484AB" strokeWidth="6.6381" strokeLinecap="round" strokeLinejoin="round"/>
<path d="M559.303 163.014H587.991C607.256 163.014 622.876 148.268 622.876 130.079C622.876 111.889 607.256 97.1436 587.991 97.1436H530.616C511.349 97.1436 495.73 111.889 495.73 130.079" stroke="#44AB96" strokeWidth="6.6381" strokeLinecap="round" strokeLinejoin="round"/>
<path d="M347.65 25.6562H278.878C235.359 25.6562 200.079 61.0912 200.079 104.803" stroke="#44AB96" strokeWidth="6.6381" strokeLinecap="round" strokeLinejoin="round"/>
<path d="M743.127 538.241C759.343 538.241 772.488 551.293 772.488 567.388C772.488 583.483 759.343 596.534 743.127 596.534C726.911 596.534 713.766 583.483 713.766 567.388V377.477" stroke="#E53855" strokeWidth="6.6381" strokeLinecap="round" strokeLinejoin="round"/>
<path d="M523.304 557.215C523.304 527.323 547.225 503.089 576.733 503.089H670.874" stroke="#44AB96" strokeWidth="6.6381" strokeLinecap="round" strokeLinejoin="round"/>
<path d="M384.415 218.672H434.646C468.382 218.672 495.73 191.238 495.73 157.397" stroke="#4484AB" strokeWidth="6.6381" strokeLinecap="round" strokeLinejoin="round"/>
<path d="M677.512 378.497V405.946C677.512 433.651 655.043 456.112 627.324 456.112H588.153" stroke="#4484AB" strokeWidth="6.6381" strokeLinecap="round" strokeLinejoin="round"/>
<path d="M772.488 241.65H729.592C698.571 241.65 673.427 267.026 673.427 298.329" stroke="#DA774A" strokeWidth="6.6381" strokeLinecap="round" strokeLinejoin="round"/>
<path d="M114.295 643V596.473C114.295 569.684 135.218 547.242 163.315 541.386" stroke="#44AB96" strokeWidth="6.6381" strokeLinecap="round" strokeLinejoin="round"/>
<path d="M25.7017 88.4634C25.7017 93.2188 25.7017 153.081 25.7017 182.418" stroke="#44AB96" strokeWidth="6.6381" strokeLinecap="round" strokeLinejoin="round"/>
<path d="M558.792 304.457C558.792 308.385 558.792 357.836 558.792 382.071" stroke="#44AB96" strokeWidth="6.6381" strokeLinecap="round" strokeLinejoin="round"/>
<path d="M480.156 515.344C480.156 516.947 480.156 537.116 480.156 547.003" stroke="#44AB96" strokeWidth="6.6381" strokeLinecap="round" strokeLinejoin="round"/>
<path d="M490.114 479.601H503.786C532.039 479.601 554.943 456.725 554.943 428.507M632.578 221.736V294.413C632.578 305.849 623.236 315.112 611.711 315.112C600.187 315.112 590.845 324.382 590.845 335.818V340.113C590.845 351.548 600.187 360.819 611.711 360.819C623.236 360.819 632.578 370.089 632.578 381.525V386.28C632.578 400.342 621.09 411.741 606.919 411.741H593.627H574.151L632.578 221.736Z" stroke="#FFB017" strokeWidth="6.6381" strokeLinecap="round" strokeLinejoin="round"/>
<path d="M759.212 121.103V131.459C759.212 146.067 747.333 157.908 732.689 157.908C718.039 157.908 706.16 146.067 706.16 131.459V122.881C706.16 108.385 694.373 96.6333 679.84 96.6333C665.3 96.6333 653.513 108.385 653.513 122.881V133.439" stroke="#E53855" strokeWidth="6.6381" strokeLinecap="round" strokeLinejoin="round"/>
<path fillRule="evenodd" clipRule="evenodd" d="M559.047 578.644C559.047 558.069 575.736 541.386 596.323 541.386C616.907 541.386 633.598 558.069 633.598 578.644V605.741C633.598 626.317 616.907 643 596.323 643C575.736 643 559.047 626.317 559.047 605.741V578.644Z" stroke="#4484AB" strokeWidth="6.6381" strokeLinecap="round" strokeLinejoin="round"/>
</g>
</svg>
