<svg width="72" height="146" viewBox="0 0 72 146" fill="none" xmlns="http://www.w3.org/2000/svg">
<g opacity="0.53">
<path d="M50.2002 69.1123C57.8536 65.827 64.1312 59.9896 67.9633 52.5948C71.7953 45.1999 72.9447 36.7051 71.2157 28.5577C69.4867 20.4104 64.9862 13.1146 58.481 7.91354C51.9758 2.71245 43.8685 -0.0721581 35.5403 0.0341846C27.2122 0.140527 19.1786 3.13124 12.8084 8.49674C6.43814 13.8622 2.12537 21.2705 0.604936 29.4594C-0.9155 37.6482 0.450468 46.1109 4.4701 53.4055C8.48972 60.7001 14.9143 66.3753 22.6492 69.4641L23.6414 66.9793C16.4814 64.1201 10.5344 58.8667 6.81348 52.1142C3.0926 45.3618 1.82815 37.528 3.23558 29.9478C4.64302 22.3676 8.63525 15.5099 14.532 10.5432C20.4288 5.57645 27.8654 2.80802 35.5745 2.70958C43.2837 2.61114 50.7884 5.18878 56.8101 10.0033C62.8318 14.8179 66.9979 21.5714 68.5984 29.1132C70.1989 36.655 69.1349 44.5185 65.5877 51.3637C62.0404 58.209 56.2294 63.6125 49.1448 66.6536L50.2002 69.1123Z" fill="#916BBF"/>
<path d="M31.2926 74.0312H41.2642V71.8295H34.929V71.7301L37.4361 69.1804C40.2628 66.4673 41.044 65.1463 41.044 63.5057C41.044 61.0696 39.0625 59.2869 36.1364 59.2869C33.2528 59.2869 31.2074 61.0767 31.2074 63.8395H33.7145C33.7145 62.3551 34.652 61.4247 36.1009 61.4247C37.4858 61.4247 38.5156 62.2699 38.5156 63.6406C38.5156 64.8551 37.777 65.7216 36.3423 67.1776L31.2926 72.1278V74.0312Z" fill="#916BBF"/>
<path d="M49.5788 18.4768H22.4212C19.4319 18.4768 17 20.9087 17 23.898V42.2271C17 45.2163 19.4319 47.6483 22.4212 47.6483H24.5485L24.5901 52.4341C24.5938 52.8752 24.8471 53.2761 25.2439 53.4689C25.4052 53.5472 25.5788 53.5858 25.7516 53.5858C26.0038 53.5858 26.2543 53.5037 26.4615 53.3437L33.8407 47.6483H49.5788C52.5681 47.6483 55 45.2163 55 42.2271V23.898C55 20.9087 52.5681 18.4768 49.5788 18.4768ZM52.6767 42.2272C52.6767 43.9353 51.287 45.325 49.5788 45.325H33.4446C33.1878 45.325 32.9382 45.4101 32.7348 45.567L26.893 50.0758L26.8617 46.4766C26.8562 45.839 26.3377 45.325 25.7001 45.325H22.4212C20.713 45.325 19.3233 43.9353 19.3233 42.2272V23.898C19.3233 22.1898 20.713 20.8002 22.4212 20.8002H49.5789C51.2871 20.8002 52.6767 22.1898 52.6767 23.898V42.2272H52.6767Z" fill="#916BBF"/>
</g>
<line x1="36.5" y1="81.0312" x2="36.5" y2="145.062" stroke="#0A275B" stroke-opacity="0.53" stroke-dasharray="5 5"/>
</svg>
