<svg width="72" height="80" viewBox="0 0 72 80" fill="none" xmlns="http://www.w3.org/2000/svg">
<g opacity="0.53">
<path d="M50.2002 69.1748C57.8536 65.8895 64.1312 60.0521 67.9633 52.6573C71.7953 45.2624 72.9447 36.7676 71.2157 28.6202C69.4867 20.4729 64.9862 13.1771 58.481 7.97604C51.9758 2.77495 43.8685 -0.00965814 35.5403 0.0966846C27.2122 0.203027 19.1786 3.19374 12.8084 8.55924C6.43814 13.9247 2.12537 21.333 0.604936 29.5219C-0.9155 37.7107 0.450468 46.1734 4.4701 53.468C8.48972 60.7626 14.9143 66.4378 22.6492 69.5266L23.6414 67.0418C16.4814 64.1826 10.5344 58.9292 6.81348 52.1767C3.0926 45.4243 1.82815 37.5905 3.23558 30.0103C4.64302 22.4301 8.63525 15.5724 14.532 10.6057C20.4288 5.63895 27.8654 2.87052 35.5745 2.77208C43.2837 2.67364 50.7884 5.25128 56.8101 10.0658C62.8318 14.8804 66.9979 21.6339 68.5984 29.1757C70.1989 36.7175 69.1349 44.581 65.5877 51.4262C62.0404 58.2715 56.2294 63.675 49.1448 66.7161L50.2002 69.1748Z" fill="#916BBF"/>
<path d="M30.0298 71.3949H36.9688V74.0938H39.483V71.3949H41.3438V69.2287H39.483V59.5483H36.2017L30.0298 69.2997V71.3949ZM36.9972 69.2287H32.7287V69.1151L36.8835 62.5312H36.9972V69.2287Z" fill="#916BBF"/>
<g clip-path="url(#clip0_642_185)">
<path d="M32.7684 34.2063H35.3018V35.4733H32.7684V34.2063Z" fill="#916BBF"/>
<path d="M54.393 32.3124L50.0906 31.698C49.3061 31.2161 48.492 30.7846 47.6526 30.4061C44.8805 29.1504 41.8719 28.5025 38.8285 28.5059H38.0811C34.4895 28.5084 30.9553 29.4097 27.8008 31.1274L25.6295 32.3119C23.0878 32.3405 20.5952 33.0165 18.387 34.2752C17.4896 34.7899 16.9355 35.7448 16.934 36.779V40.5399C16.934 40.8899 17.2175 41.1734 17.5674 41.1734H19.6942C20.3859 43.1468 22.5464 44.1859 24.5197 43.4942C25.606 43.1135 26.4599 42.2594 26.8405 41.1734H43.7625C44.4543 43.1468 46.6147 44.1859 48.5881 43.4942C49.6742 43.1135 50.5283 42.2594 50.9089 41.1734H51.1362C51.2169 41.1734 51.2968 41.1582 51.3718 41.1283L53.4232 40.3051C54.3397 39.9423 54.9399 39.0552 54.9366 38.0699V32.9395C54.9366 32.6245 54.7049 32.3573 54.393 32.3124ZM25.7498 40.4134C25.4697 41.7842 24.1314 42.6684 22.7605 42.3883C21.3895 42.1082 20.5052 40.7698 20.7854 39.3987C21.0658 38.0279 22.4041 37.1437 23.7749 37.4238C24.9545 37.6648 25.8014 38.7026 25.8011 39.9067C25.8011 40.0768 25.7839 40.2466 25.7498 40.4134ZM37.202 39.9067H27.0678C27.0678 37.8078 25.3666 36.1063 23.2677 36.1063C21.1688 36.1063 19.4674 37.8078 19.4674 39.9067H18.2007V36.779C18.2014 36.1989 18.5122 35.6631 19.0158 35.3749C21.0828 34.1948 23.4213 33.5737 25.8011 33.5729H37.202V39.9067ZM37.202 32.3062H28.2853L28.4075 32.2395C31.1154 30.7679 34.1232 29.9336 37.202 29.8004V32.3062ZM38.4687 29.7726H38.8272C41.3796 29.7697 43.9089 30.2543 46.2797 31.2004L45.1738 32.3062H38.4687V29.7726ZM49.8182 40.4134C49.5381 41.7842 48.1997 42.6684 46.8287 42.3883C45.4578 42.1082 44.5736 40.7698 44.8537 39.3987C45.1339 38.0279 46.4725 37.1437 47.8433 37.4238C49.0229 37.6648 49.8698 38.7026 49.8695 39.9067C49.8695 40.0768 49.8522 40.2466 49.8182 40.4134ZM53.6699 34.2062H51.7697V35.4731H53.6699V38.0699C53.6714 38.5367 53.3869 38.9567 52.9529 39.1281L51.1362 39.8577C51.1362 39.7995 51.1287 39.7418 51.1249 39.6835C51.121 39.6253 51.1197 39.557 51.1135 39.4936C51.1071 39.4302 51.0945 39.3668 51.0844 39.3036C51.0741 39.2402 51.0666 39.1768 51.054 39.1194C51.0414 39.0616 51.0228 38.9977 51.0063 38.9374C50.9898 38.8774 50.9772 38.8165 50.9581 38.7575C50.9393 38.6988 50.9164 38.6423 50.895 38.5846C50.8733 38.5271 50.8538 38.4676 50.8316 38.4104C50.8094 38.3534 50.7795 38.3016 50.753 38.2477C50.7264 38.1939 50.7004 38.1349 50.6708 38.0805C50.6409 38.0261 50.6074 37.9797 50.5788 37.9292C50.5504 37.8784 50.5156 37.8207 50.4795 37.7689C50.4432 37.7168 50.4097 37.6759 50.3749 37.629C50.3401 37.5821 50.3007 37.5269 50.2602 37.4782C50.2198 37.4295 50.1819 37.3913 50.1424 37.3514C50.1033 37.3117 50.0595 37.2578 50.0159 37.2135C49.9721 37.1692 49.9291 37.1341 49.8855 37.095C49.8417 37.0558 49.7948 37.0094 49.7466 36.9682C49.6986 36.9272 49.6497 36.8955 49.6017 36.8594C49.5535 36.8233 49.5054 36.7847 49.4548 36.7509C49.4041 36.7174 49.3471 36.6878 49.2927 36.6522C49.2381 36.6166 49.1938 36.5888 49.1425 36.5617C49.0912 36.5344 49.0273 36.5058 48.969 36.478C48.9108 36.4501 48.8652 36.4254 48.8113 36.4027C48.7574 36.3798 48.6845 36.3558 48.6214 36.3331C48.558 36.3102 48.5167 36.2924 48.4629 36.2754C48.3907 36.2532 48.3167 36.2373 48.243 36.219C48.1948 36.2076 48.1487 36.1924 48.1 36.1824C48.0222 36.1664 47.9423 36.1576 47.8632 36.146C47.8162 36.1398 47.7714 36.1295 47.7245 36.1252C47.5977 36.1125 47.4712 36.1056 47.3382 36.1056C45.2401 36.1076 43.5399 37.8078 43.5378 39.9059H38.4689V33.5727H45.4359C45.604 33.5727 45.765 33.5059 45.8836 33.3871L47.5261 31.7447C48.2155 32.0727 48.8858 32.4395 49.534 32.8431C49.6087 32.8897 49.6922 32.9204 49.7796 32.933L53.6699 33.4884V34.2062Z" fill="#916BBF"/>
</g>
</g>
<defs>
<clipPath id="clip0_642_185">
<rect width="38" height="38" fill="white" transform="translate(17 17.0938)"/>
</clipPath>
</defs>
</svg>
