<svg width="136" height="24" viewBox="0 0 136 24" fill="none" xmlns="http://www.w3.org/2000/svg">
<g clip-path="url(#clip0_1520_428)">
<path d="M12.3702 13.5804H11.0056L19.1346 21.868V23.7924H17.252L7.22663 13.5804H2.67065V23.7924H0V0.071167H12.3702C14.1379 0.107061 15.8211 0.834482 17.0585 2.09731C18.296 3.36013 18.9891 5.05773 18.9891 6.82578C18.9891 8.59383 18.296 10.2914 17.0585 11.5542C15.8211 12.8171 14.1379 13.5445 12.3702 13.5804ZM2.67065 2.74183V10.9097H12.3702C13.4349 10.8819 14.4466 10.4394 15.1898 9.67659C15.933 8.91373 16.3489 7.89081 16.3489 6.82578C16.3489 5.76074 15.933 4.73782 15.1898 3.97496C14.4466 3.2121 13.4349 2.76963 12.3702 2.74183H2.67065Z" fill="white"/>
<path d="M31.8921 5.19249C34.3596 5.19544 36.7251 6.17693 38.4698 7.92167C40.2146 9.66642 41.1961 12.032 41.199 14.4994V23.8063H38.5284V14.4855C38.5284 12.7254 37.8292 11.0375 36.5846 9.79293C35.3401 8.5484 33.6522 7.84921 31.8921 7.84921C30.1321 7.84921 28.4441 8.5484 27.1996 9.79293C25.955 11.0375 25.2559 12.7254 25.2559 14.4855C25.2577 14.5251 25.2642 14.5644 25.2754 14.6024C25.2865 14.6405 25.2931 14.6798 25.2948 14.7194H25.2559V23.7924H22.5852V0.229919H25.2559V7.97732C26.11 7.08037 27.1405 6.3699 28.2826 5.89064C29.4247 5.41137 30.6537 5.17367 31.8921 5.19249Z" fill="#F7931E" stroke="#F7931E" strokeWidth="0.278483" stroke-miterlimit="10"/>
<path d="M52.6614 21.1218C53.9533 21.1271 55.2162 20.7385 56.2817 20.0078C57.3447 19.3118 58.1863 18.3262 58.7073 17.1673H61.5756C60.9966 19.0818 59.8182 20.7599 58.214 21.9546C56.6097 23.1492 54.6644 23.7974 52.6642 23.8035C50.8254 23.803 49.028 23.2574 47.4991 22.2358C45.9703 21.2141 44.7785 19.7623 44.0745 18.0636C43.3704 16.3649 43.1856 14.4957 43.5435 12.692C43.9013 10.8884 44.7858 9.2313 46.085 7.9301C47.3843 6.6289 49.0401 5.74198 50.8432 5.38143C52.6463 5.02087 54.5158 5.20287 56.2155 5.90438C57.9152 6.6059 59.3689 7.79547 60.3928 9.3228C61.4167 10.8501 61.965 12.6467 61.9683 14.4855H46.0251C46.0251 16.2455 46.7243 17.9335 47.9688 19.178C49.2134 20.4226 50.9013 21.1218 52.6614 21.1218ZM56.2817 8.92697C55.2006 8.2236 53.9386 7.84919 52.6489 7.84919C51.3591 7.84919 50.0971 8.2236 49.016 8.92697C47.9519 9.62231 47.1131 10.6122 46.6016 11.7759H58.6961C58.1877 10.6136 57.3528 9.62394 56.2928 8.92697H56.2817Z" fill="white"/>
<path d="M73.4749 5.19246C75.9423 5.19541 78.3079 6.1769 80.0526 7.92164C81.7974 9.66639 82.7789 12.0319 82.7818 14.4994V23.8063H80.1112V14.4854C80.0756 12.7486 79.3606 11.0948 78.1197 9.87906C76.8788 8.6633 75.2107 7.98237 73.4735 7.98237C71.7363 7.98237 70.0682 8.6633 68.8273 9.87906C67.5864 11.0948 66.8714 12.7486 66.8359 14.4854V23.7923H64.168V5.13397H66.8359V7.97729C67.6904 7.08013 68.7214 6.36955 69.864 5.89028C71.0066 5.41101 72.236 5.17342 73.4749 5.19246Z" fill="white"/>
<path d="M100.925 0.229919H103.593V23.7924H100.925V21.0075C99.6305 22.3265 97.9725 23.2302 96.1625 23.6034C94.3524 23.9766 92.4723 23.8025 90.7615 23.1032C89.0508 22.404 87.587 21.2112 86.5567 19.6769C85.5263 18.1427 84.9761 16.3364 84.9761 14.4883C84.9761 12.6401 85.5263 10.8339 86.5567 9.29959C87.587 7.76533 89.0508 6.57256 90.7615 5.87328C92.4723 5.17401 94.3524 4.99988 96.1625 5.3731C97.9725 5.74633 99.6305 6.65 100.925 7.96896V0.229919ZM89.5936 19.1668C90.6805 20.251 92.1097 20.9249 93.6377 21.0736C95.1657 21.2223 96.698 20.8366 97.9736 19.9823C99.2491 19.1279 100.189 17.8577 100.633 16.3881C101.077 14.9185 100.998 13.3404 100.409 11.9226C99.8199 10.5049 98.7576 9.33515 97.4029 8.6128C96.0483 7.89044 94.485 7.66013 92.9796 7.96107C91.4741 8.26202 90.1196 9.07561 89.1467 10.2632C88.1739 11.4509 87.6429 12.9391 87.6442 14.4743C87.6303 15.35 87.7962 16.2191 88.1315 17.0281C88.4668 17.8372 88.9644 18.5688 89.5936 19.1779V19.1668Z" fill="white"/>
<path d="M121.736 5.13953H124.407V23.7979H121.736V21.0131C120.442 22.332 118.784 23.2357 116.974 23.6089C115.164 23.9821 113.283 23.808 111.573 23.1088C109.862 22.4095 108.398 21.2167 107.368 19.6824C106.337 18.1482 105.787 16.3419 105.787 14.4938C105.787 12.6457 106.337 10.8394 107.368 9.3051C108.398 7.77083 109.862 6.57806 111.573 5.87879C113.283 5.17951 115.164 5.0054 116.974 5.37863C118.784 5.75185 120.442 6.65552 121.736 7.97448V5.13953ZM110.407 19.1779C111.494 20.2621 112.924 20.936 114.452 21.0847C115.98 21.2334 117.512 20.8477 118.787 19.9934C120.063 19.139 121.003 17.8688 121.447 16.3992C121.891 14.9296 121.812 13.3515 121.223 11.9337C120.634 10.5159 119.571 9.34625 118.217 8.6239C116.862 7.90154 115.299 7.67121 113.793 7.97215C112.288 8.2731 110.933 9.08669 109.961 10.2743C108.988 11.462 108.457 12.9502 108.458 14.4854C108.446 15.3592 108.612 16.2262 108.948 17.0332C109.283 17.8402 109.78 18.57 110.407 19.1779Z" fill="white"/>
<path d="M131.274 15.1009L132.642 17.8718L135.702 18.3174L133.488 20.4756L134.012 23.5222L131.274 22.0852L128.537 23.5222L129.06 20.4756L126.846 18.3174L129.907 17.8718L131.274 15.1009Z" fill="#F7931E" stroke="#F7931E" strokeWidth="0.278483" stroke-miterlimit="10"/>
</g>
<defs>
<clipPath id="clip0_1520_428">
<rect width="136" height="23.8576" fill="white" transform="translate(0 0.071167)"/>
</clipPath>
</defs>
</svg>
