<svg width="100" height="99" viewBox="0 0 100 99" fill="none" xmlns="http://www.w3.org/2000/svg">
<path d="M32.2934 19.1855C31.9823 19.4966 31.7462 19.8716 31.549 20.2827L31.5268 20.2605L0.372209 90.4416L0.402763 90.4722C-0.174996 91.5916 0.79164 93.8693 2.77213 95.8525C4.75262 97.833 7.03033 98.7997 8.14974 98.2219L8.17752 98.2497L78.3586 67.0923L78.3364 67.0673C78.7447 66.8729 79.1197 66.6368 79.4336 66.3201C83.7723 61.9814 76.7364 47.9124 63.723 34.8962C50.7039 21.8799 36.6349 14.8468 32.2934 19.1855Z" fill="#DD2E44"/>
<path d="M36.11 31.7185L1.15552 88.6778L0.372209 90.4416L0.402763 90.4722C-0.174996 91.5916 0.79164 93.8693 2.77213 95.8526C3.41656 96.497 4.08598 96.9859 4.74151 97.3997L47.2207 45.607L36.11 31.7185Z" fill="#EA596E"/>
<path d="M63.9202 34.6795C76.892 47.6569 84.0945 61.4898 80.0002 65.5785C75.9087 69.6729 62.0758 62.4731 49.0956 49.5013C36.1211 36.5239 28.9213 22.6855 33.0128 18.5939C37.1071 14.5024 50.94 21.7022 63.9202 34.6795Z" fill="#A0041E"/>
<path d="M51.6372 36.1877C51.0845 36.6349 50.3623 36.8683 49.5984 36.7849C47.1874 36.5238 45.1597 35.685 43.7403 34.36C42.2375 32.9573 41.4959 31.074 41.6987 29.1879C42.0542 25.8769 45.3763 22.8382 51.04 23.4492C53.2427 23.6853 54.226 22.977 54.2594 22.6382C54.2983 22.3021 53.49 21.3993 51.2873 21.1604C48.8762 20.8993 46.8485 20.0605 45.4263 18.7355C43.9236 17.3328 43.1792 15.4495 43.3847 13.5634C43.7458 10.2524 47.0652 7.21365 52.7233 7.82752C54.3288 7.99974 55.176 7.66919 55.5343 7.45531C55.8204 7.28031 55.9343 7.11365 55.9454 7.01643C55.9788 6.68033 55.1816 5.77759 52.9733 5.5387C51.4484 5.37204 50.3428 4.00542 50.5123 2.47769C50.6762 0.95274 52.04 -0.150003 53.5705 0.0166588C59.2287 0.624973 61.8286 4.29985 61.4703 7.61364C61.1092 10.9302 57.7898 13.9634 52.1261 13.3551C50.5206 13.1801 49.6817 13.5134 49.3207 13.7273C49.0345 13.8995 48.9179 14.069 48.9068 14.1634C48.8707 14.5023 49.6734 15.4023 51.8817 15.6412C57.5398 16.2522 60.1397 19.9244 59.7814 23.2381C59.4231 26.5491 56.1038 29.5879 50.4428 28.9741C48.8373 28.8018 47.9929 29.1352 47.6318 29.3463C47.3429 29.524 47.2318 29.6907 47.2207 29.7852C47.1846 30.1213 47.9874 31.024 50.1928 31.2629C51.715 31.4295 52.8233 32.7989 52.6539 34.3239C52.5761 35.085 52.19 35.7433 51.6372 36.1877Z" fill="#AA8DD8"/>
<path d="M85.1667 61.8757C90.6471 60.3286 94.4275 62.7729 95.3275 65.9812C96.2275 69.1866 94.2775 73.2448 88.7999 74.7864C86.6611 75.3864 86.0195 76.4086 86.1056 76.7336C86.2 77.0614 87.2861 77.6002 89.4194 76.9975C94.897 75.4559 98.6774 77.9002 99.5774 81.1057C100.483 84.3139 98.5274 88.3666 93.047 89.911C90.911 90.5109 90.2665 91.5359 90.361 91.8609C90.4527 92.1859 91.536 92.7248 93.672 92.1248C95.1442 91.7109 96.683 92.5692 97.0969 94.0442C97.508 95.5219 96.6497 97.0552 95.172 97.4718C89.6971 99.0134 85.9139 96.5746 85.0084 93.3636C84.1084 90.1582 86.0611 86.1055 91.5443 84.5611C93.6831 83.9584 94.3248 82.939 94.2303 82.6112C94.1414 82.2862 93.0581 81.7445 90.9249 82.3445C85.4417 83.8889 81.6641 81.4501 80.7613 78.2363C79.8586 75.0309 81.8113 70.9782 87.2916 69.4311C89.4249 68.8338 90.0666 67.8061 89.9777 67.4839C89.8832 67.1561 88.8027 66.6173 86.6667 67.2172C85.1889 67.6339 83.6584 66.7728 83.2418 65.2979C82.8279 63.8257 83.689 62.2924 85.1667 61.8757Z" fill="#77B255"/>
<path d="M63.8896 54.3843C63.073 54.3843 62.2675 54.026 61.7175 53.3427C60.7592 52.1427 60.9564 50.3955 62.1508 49.4372C62.7563 48.9511 77.2003 37.6071 97.6135 40.5264C99.1329 40.7431 100.188 42.1486 99.9718 43.668C99.7551 45.1846 98.3607 46.2512 96.8275 46.0235C78.7919 43.4624 65.7535 53.6732 65.6257 53.776C65.109 54.1871 64.4979 54.3843 63.8896 54.3843Z" fill="#AA8DD8"/>
<path d="M15.9828 42.8291C15.7189 42.8291 15.4495 42.7902 15.1828 42.7124C13.7135 42.2708 12.8801 40.7236 13.3218 39.2542C16.4689 28.774 19.3216 12.0495 15.8162 7.68856C15.4245 7.19414 14.8329 6.70804 13.4773 6.81082C10.8719 7.01081 11.1191 12.5079 11.1219 12.5634C11.2385 14.0939 10.0886 15.4272 8.56084 15.5411C7.00811 15.6355 5.69704 14.5078 5.58316 12.9773C5.29706 9.14685 6.48868 1.76931 13.0607 1.2721C15.9939 1.04989 18.43 2.0693 20.1494 4.20812C26.7353 12.4051 20.0494 36.1682 18.6438 40.8514C18.2827 42.0541 17.1772 42.8291 15.9828 42.8291Z" fill="#77B255"/>
<path d="M70.8311 28.9407C73.1322 28.9407 74.9976 27.0753 74.9976 24.7742C74.9976 22.4731 73.1322 20.6077 70.8311 20.6077C68.53 20.6077 66.6645 22.4731 66.6645 24.7742C66.6645 27.0753 68.53 28.9407 70.8311 28.9407Z" fill="#5C913B"/>
<path d="M5.55538 53.9399C8.62353 53.9399 11.1108 51.4526 11.1108 48.3845C11.1108 45.3163 8.62353 42.8291 5.55538 42.8291C2.48723 42.8291 0 45.3163 0 48.3845C0 51.4526 2.48723 53.9399 5.55538 53.9399Z" fill="#9266CC"/>
<path d="M90.2749 56.7176C92.576 56.7176 94.4414 54.8522 94.4414 52.5511C94.4414 50.2499 92.576 48.3845 90.2749 48.3845C87.9738 48.3845 86.1084 50.2499 86.1084 52.5511C86.1084 54.8522 87.9738 56.7176 90.2749 56.7176Z" fill="#5C913B"/>
<path d="M65.2757 90.0499C67.5768 90.0499 69.4422 88.1844 69.4422 85.8833C69.4422 83.5822 67.5768 81.7168 65.2757 81.7168C62.9746 81.7168 61.1092 83.5822 61.1092 85.8833C61.1092 88.1844 62.9746 90.0499 65.2757 90.0499Z" fill="#5C913B"/>
<path d="M77.7753 15.0524C80.8434 15.0524 83.3307 12.5652 83.3307 9.49703C83.3307 6.42888 80.8434 3.94165 77.7753 3.94165C74.7071 3.94165 72.2199 6.42888 72.2199 9.49703C72.2199 12.5652 74.7071 15.0524 77.7753 15.0524Z" fill="#FFCC4D"/>
<path d="M90.2749 26.1631C92.576 26.1631 94.4414 24.2977 94.4414 21.9966C94.4414 19.6955 92.576 17.8301 90.2749 17.8301C87.9738 17.8301 86.1084 19.6955 86.1084 21.9966C86.1084 24.2977 87.9738 26.1631 90.2749 26.1631Z" fill="#FFCC4D"/>
<path d="M81.9418 37.2737C84.2429 37.2737 86.1084 35.4083 86.1084 33.1072C86.1084 30.8061 84.2429 28.9407 81.9418 28.9407C79.6407 28.9407 77.7753 30.8061 77.7753 33.1072C77.7753 35.4083 79.6407 37.2737 81.9418 37.2737Z" fill="#FFCC4D"/>
<path d="M20.8327 67.8284C23.1338 67.8284 24.9992 65.963 24.9992 63.6619C24.9992 61.3608 23.1338 59.4954 20.8327 59.4954C18.5316 59.4954 16.6661 61.3608 16.6661 63.6619C16.6661 65.963 18.5316 67.8284 20.8327 67.8284Z" fill="#FFCC4D"/>
</svg>
